<?xml version="1.0" encoding="UTF-8"?><svg id="Layer_2" xmlns="http://www.w3.org/2000/svg" viewBox="0 0 3500 3500"><defs><style>.cls-1{fill:#fff;}.cls-2{fill:#325982;}.cls-3{fill:#5e99c5;}.cls-4{fill:#204161;}</style></defs><g id="BG"><circle class="cls-2" cx="1750" cy="1750" r="1750"/></g><g id="game"><g><path class="cls-4" d="M753.77,1403.01c0-73.29,51.97-163.22,115.44-199.87l765.46-441.98c63.46-36.65,167.32-36.65,230.79,0l765.42,441.98c63.46,36.65,115.37,126.58,115.37,199.87v883.98c0,73.28-51.9,163.22-115.37,199.87l-765.42,441.98c-63.46,36.64-167.3,36.64-230.77,0l-765.48-441.98c-63.46-36.65-115.43-126.59-115.43-199.87v-883.98Z"/><path class="cls-1" d="M753.77,1213.01c0-73.29,51.97-163.22,115.44-199.87l765.46-441.98c63.46-36.65,167.32-36.65,230.79,0l765.42,441.98c63.46,36.65,115.37,126.58,115.37,199.87v883.98c0,73.28-51.9,163.22-115.37,199.87l-765.42,441.98c-63.46,36.64-167.3,36.64-230.77,0l-765.48-441.98c-63.46-36.65-115.43-126.59-115.43-199.87v-883.98Z"/><path class="cls-3" d="M2391.91,1587.68c-64.71-269.83-133.38-413.29-270.14-454.19-137.04-40.59-180.08,36.33-371.77,36.33s-234.73-77.23-371.78-36.33c-137.05,40.59-205.43,184.36-270.13,454.19-64.71,270.13-52.8,465.18,23.5,501.51,76.31,36.32,162.38-47.01,244.5-149.87,66.55-80.59,99.81-85.77,373.91-85.77s302.18,2.13,373.91,85.77c82.11,102.86,168.18,186.19,244.49,149.87,76.31-36.33,88.21-231.38,23.5-501.51Zm-820.47-21.06h-71.73v71.73c0,30.34-24.6,54.94-54.94,54.94s-54.94-24.6-54.94-54.94v-71.73h-71.73c-30.35,0-54.94-24.6-54.94-54.95s24.59-54.94,54.94-54.94h71.73v-71.74c0-30.34,24.59-54.94,54.94-54.94s54.94,24.6,54.94,54.94v71.74h71.73c30.34,0,54.94,24.59,54.94,54.94s-24.6,54.95-54.94,54.95Zm342.47,4.88c-32.36,0-58.91-26.56-58.91-59.22s26.55-59.22,58.91-59.22,59.22,26.55,59.22,59.22c-.31,32.65-26.56,59.22-59.22,59.22Zm128.8,129.41c-32.35,0-58.9-26.55-58.9-59.22s26.54-59.21,58.9-59.21,59.23,26.55,59.23,59.21-26.56,59.22-59.23,59.22Zm0-259.14c-32.35,0-58.9-26.56-58.9-59.22s26.54-59.22,58.9-59.22,59.23,26.55,59.23,59.22-26.56,59.22-59.23,59.22Zm129.13,129.73c-32.67,0-58.91-26.56-58.91-59.22s26.54-59.22,58.91-59.22,58.9,26.55,58.9,59.22-26.25,59.22-58.9,59.22Z"/></g></g></svg>